<svg width="34" height="16" viewBox="0 0 34 16" fill="none" xmlns="http://www.w3.org/2000/svg">
    <!--icons-->
    <g id="infinity">
        <path d="M17.0102 8.00823L21.4078 12.2537C22.5748 13.3723 24.1525 14 25.797 14C27.4415 14 29.0192 13.3723 30.1862 12.2537C31.3481 11.129 32.0003 9.60526 32 8.0168C31.9996 6.42833 31.3467 4.90486 30.1844 3.78059C29.022 2.65631 27.4452 2.02304 25.7999 2.01969C24.1545 2.01634 22.575 2.64319 21.4078 3.76272L17.0102 8.00823ZM17.0102 8.00823L12.6127 12.2537C11.4456 13.3723 9.86789 14 8.22342 14C6.57896 14 5.0012 13.3723 3.8342 12.2537C3.2545 11.6977 2.7941 11.0368 2.47937 10.3088C2.16463 9.58075 2.00174 8.79994 2.00001 8.01105C1.99829 7.22216 2.15777 6.44068 2.46933 5.71138C2.78088 4.98208 3.23839 4.31927 3.81565 3.76091C4.39291 3.20255 5.07858 2.75961 5.83341 2.45744C6.58824 2.15528 7.39739 1.99983 8.21454 2C9.03168 2.00017 9.84077 2.15595 10.5955 2.45842C11.3502 2.7609 12.0356 3.20412 12.6127 3.76272L17.0102 8.00823Z"
              stroke="#FF85D2" stroke-width="4" stroke-linecap="round" stroke-linejoin="round"/>
    </g>
    <g id="arrow-right">
        <path d="M1 1L9 8.5L1 16" stroke="white" stroke-width="2" stroke-linecap="round" stroke-linejoin="round"/>
    </g>
    <g id="arrow-left">
        <path d="M9 1L1 8.5L9 16" stroke="white" stroke-width="2" stroke-linecap="round" stroke-linejoin="round"/>
    </g>
    <g id="arrow-top">
        <path d="M16 9L8.5 1L1 9" stroke="white" stroke-width="2" stroke-linecap="round" stroke-linejoin="round"/>
    </g>
    <g id="arrow-bottom">
        <path d="M16 1L8.5 9L1 1" stroke="white" stroke-width="2" stroke-linecap="round" stroke-linejoin="round"/>
    </g>
    <g id="code">
        <path d="M38.25 14.7273L50 26.5L38.25 38.2727M14.75 38.2727L3 26.5L14.75 14.7273M31.5357 8L21.4643 45"
              stroke="white" stroke-width="2" stroke-linecap="round" stroke-linejoin="round"/>
    </g>
    <g id="fire">
        <path d="M34.043 11.5686C37.9115 13.2986 41.0698 16.3046 42.9901 20.0845C44.9105 23.8644 45.4766 28.1892 44.594 32.3366C43.7114 36.4839 41.4334 40.2026 38.1407 42.8715C34.8479 45.5403 30.7398 46.9976 26.5026 47C22.8782 46.9998 19.3336 45.9345 16.3089 43.9362C13.2843 41.9378 10.9126 39.0945 9.48841 35.7592C8.06421 32.4239 7.65018 28.7435 8.29771 25.1748C8.94523 21.6061 10.6258 18.3063 13.1308 15.685C14.857 18.0972 17.1348 20.0611 19.7741 21.4129C19.8203 18.4471 20.5199 15.528 21.8229 12.8638C23.1259 10.1997 25.0002 7.85601 27.3122 6C29.0768 8.36836 31.3845 10.2775 34.0407 11.5663L34.043 11.5686Z"
              stroke="#1B1B1B" stroke-width="2" stroke-linecap="round" stroke-linejoin="round"/>
        <path d="M27.5022 41C29.6589 40.9992 31.7347 40.1751 33.3091 38.6948C34.8834 37.2144 35.8387 35.1884 35.9814 33.0272C36.124 30.8659 35.4434 28.731 34.0774 27.0549C32.7113 25.3787 30.762 24.2867 28.6243 24C26.2839 26.1032 24.7417 28.9562 24.2605 32.0731C22.5142 31.6441 20.8704 30.8701 19.4251 29.7964C19.0054 31.0788 18.8944 32.4429 19.1013 33.7767C19.3082 35.1105 19.8271 36.376 20.6154 37.4694C21.4036 38.5627 22.4388 39.4528 23.6359 40.0666C24.8331 40.6803 26.1581 41.0002 27.5022 41Z"
              stroke="#1B1B1B" stroke-width="2" stroke-linecap="round" stroke-linejoin="round"/>
    </g>
    <g id="android">
        <path d="M172,156a8,8,0,1,1-8-8A7.99993,7.99993,0,0,1,172,156Zm-80-8a8,8,0,1,0,8,8A7.99993,7.99993,0,0,0,92,148Zm144,20v24a12.01375,12.01375,0,0,1-12,12H32a12.01375,12.01375,0,0,1-12-12V169.12893a109.42633,109.42633,0,0,1,37.18213-82.29L29.17139,58.82863a4.00026,4.00026,0,0,1,5.65722-5.65722L63.41016,81.753a106.64706,106.64706,0,0,1,64.20849-21.75244C127.74561,60,127.876,60,128.00342,60a107.15753,107.15753,0,0,1,64.77392,21.56592l28.394-28.394a3.99992,3.99992,0,0,1,5.65722,5.65625L199.01953,86.63723q2.67152,2.33862,5.21485,4.8623A107.27637,107.27637,0,0,1,236,168Zm-8,0A99.99959,99.99959,0,0,0,128.00244,68c-.11914,0-.23682,0-.35644.00049C72.70117,68.19045,28,113.55666,28,169.12893V192a4.00458,4.00458,0,0,0,4,4H224a4.00458,4.00458,0,0,0,4-4Z"/>
    </g>
    <g id="apple">
        <path d="M134.39355,31.06886A36.2255,36.2255,0,0,1,168,8a4,4,0,0,1,0,8,28.17793,28.17793,0,0,0-26.14062,17.94287,4,4,0,1,1-7.46583-2.874Zm87.82081,133.38037C208.82324,197.15626,184.88477,220,164,220H92c-29.97412,0-68-48.96582-68-104a64.00223,64.00223,0,0,1,104-49.9624A64.00746,64.00746,0,0,1,218.31152,76.439a4,4,0,0,1-1.07031,5.896,44.0172,44.0172,0,0,0,3.03027,77.00635A4.00415,4.00415,0,0,1,222.21436,164.44923Zm-8.80176.25293a52.02345,52.02345,0,0,1-4.19922-86.62109,56.00663,56.00663,0,0,0-78.47217-3.88819,3.99764,3.99764,0,0,1-5.40723.0669A56.00071,56.00071,0,0,0,32,116a123.19453,123.19453,0,0,0,20.81445,67.26074C64.792,200.98732,79.80713,212,92,212h72C180.7832,212,201.20312,192.30177,213.4126,164.70216Z"/>
    </g>
    <g id="windows">
        <path d="M216,140H136a4.0002,4.0002,0,0,0-4,4v57.45459a4.00022,4.00022,0,0,0,3.28467,3.93555l80,14.54541A3.99966,3.99966,0,0,0,220,216V144A4.0002,4.0002,0,0,0,216,140Zm-4,71.207-72-13.09082V148h72ZM104,140H40a4.0002,4.0002,0,0,0-4,4v40a3.99983,3.99983,0,0,0,3.28467,3.93555l64,11.63672A4.00033,4.00033,0,0,0,108,195.63674V144A4.0002,4.0002,0,0,0,104,140Zm-4,50.84375L44,180.66164V148h56Zm118.563-153.915a4.00023,4.00023,0,0,0-3.27832-.86426l-80,14.54541A4.00024,4.00024,0,0,0,132,54.54543V112a4.0002,4.0002,0,0,0,4,4h80a4.0002,4.0002,0,0,0,4-4V40A4.001,4.001,0,0,0,218.563,36.92873ZM212,108H140V57.88381L212,44.793ZM103.28467,56.42776l-64,11.63671A3.99985,3.99985,0,0,0,36,72v40a4.0002,4.0002,0,0,0,4,4h64a4.0002,4.0002,0,0,0,4-4V60.3633a4.00031,4.00031,0,0,0-4.71533-3.93554ZM100,108H44V75.3384l56-10.18213Z"/>
    </g>
    <g id="desktop">
        <path d="M208,42.9209H48a20.02229,20.02229,0,0,0-20,20v112a20.02229,20.02229,0,0,0,20,20H208a20.02229,20.02229,0,0,0,20-20v-112A20.02229,20.02229,0,0,0,208,42.9209Zm12,132a12.01312,12.01312,0,0,1-12,12H48a12.01312,12.01312,0,0,1-12-12v-112a12.01312,12.01312,0,0,1,12-12H208a12.01312,12.01312,0,0,1,12,12Zm-56,48a4.0002,4.0002,0,0,1-4,4H96a4,4,0,1,1,0-8h64A4.0002,4.0002,0,0,1,164,222.9209Z"/>
    </g>
    <g id="mobile">
        <path d="M176,20H80A20.02229,20.02229,0,0,0,60,40V216a20.02229,20.02229,0,0,0,20,20h96a20.02229,20.02229,0,0,0,20-20V40A20.02229,20.02229,0,0,0,176,20ZM68,60H188V196H68ZM80,28h96a12.01312,12.01312,0,0,1,12,12V52H68V40A12.01312,12.01312,0,0,1,80,28Zm96,200H80a12.01312,12.01312,0,0,1-12-12V204H188v12A12.01312,12.01312,0,0,1,176,228Z"/>
    </g>
    <g id="bug">
        <path d="M204,140h20a4,4,0,0,0,0-8H204V108h20a4,4,0,0,0,0-8H203.89368a75.76017,75.76017,0,0,0-21.89661-49.41895L202.68652,30.898a3.99978,3.99978,0,1,0-5.51367-5.7959l-21.106,20.0791a75.83216,75.83216,0,0,0-96.21008.06006L58.68652,25.10156a4.00014,4.00014,0,0,0-5.51367,5.79688L73.93652,50.65088A75.75691,75.75691,0,0,0,52.10632,100H32a4,4,0,0,0,0,8H52v24H32a4,4,0,0,0,0,8H52v12a76.20761,76.20761,0,0,0,.9563,12H32a4,4,0,0,0,0,8H54.6897a75.98572,75.98572,0,0,0,146.6206,0H224a4,4,0,0,0,0-8H203.0437A76.20761,76.20761,0,0,0,204,152ZM128,36a68.08,68.08,0,0,1,67.8728,64H60.1272A68.08,68.08,0,0,1,128,36Zm4,183.87256V136a4,4,0,0,0-8,0v83.87256A68.07961,68.07961,0,0,1,60,152V108H196v44A68.07961,68.07961,0,0,1,132,219.87256Z"/>
    </g>
    <g id="calendar">
        <path d="M208,36H180V24a4,4,0,0,0-8,0V36H84V24a4,4,0,0,0-8,0V36H48A12.01343,12.01343,0,0,0,36,48V208a12.01343,12.01343,0,0,0,12,12H208a12.01343,12.01343,0,0,0,12-12V48A12.01343,12.01343,0,0,0,208,36ZM48,44H76V56a4,4,0,0,0,8,0V44h88V56a4,4,0,0,0,8,0V44h28a4.00427,4.00427,0,0,1,4,4V84H44V48A4.00427,4.00427,0,0,1,48,44ZM208,212H48a4.00427,4.00427,0,0,1-4-4V92H212V208A4.00427,4.00427,0,0,1,208,212Zm-41.09473-86.749a4.00012,4.00012,0,0,1-.1665,5.65429l-46.667,44a3.99857,3.99857,0,0,1-5.49463-.00683l-25.3335-24a3.99964,3.99964,0,1,1,5.502-5.80664l22.58886,21.39941,43.916-41.40625A4.00113,4.00113,0,0,1,166.90527,125.251Z"/>
    </g>
    <g id="chats">
        <path d="M226.24072,189.28271A76.00889,76.00889,0,0,0,166.75732,76.316a75.99462,75.99462,0,1,0-136.998,64.96667l-6.6377,23.2334a9.99929,9.99929,0,0,0,12.36133,12.36328l23.23438-6.63818A75.8485,75.8485,0,0,0,89.21,179.69043a76.04093,76.04093,0,0,0,108.07275,38.55029l23.23438,6.63867a9.9987,9.9987,0,0,0,12.36133-12.3623ZM59.25146,161.92822a3.99738,3.99738,0,0,0-1.09863.15381l-24.86719,7.105a2,2,0,0,1-2.47265-2.47265l7.10449-24.86719a4.00117,4.00117,0,0,0-.40723-3.14307,67.97064,67.97064,0,1,1,23.78614,23.78613A4.00029,4.00029,0,0,0,59.25146,161.92822Zm165.42676,54.75a1.96577,1.96577,0,0,1-1.96386.50879l-24.86719-7.10449a3.99913,3.99913,0,0,0-3.14356.4082,68.0381,68.0381,0,0,1-96.70752-30.54126A75.97949,75.97949,0,0,0,169.50244,84.6731a68.01461,68.01461,0,0,1,48.98828,102.03051,3.99743,3.99743,0,0,0-.4082,3.14307l7.10449,24.86865A1.96026,1.96026,0,0,1,224.67822,216.67822Z"/>
    </g>
    <g id="heart">
        <path d="M128.00586,220a3.993,3.993,0,0,1-1.9541-.51,312.79378,312.79378,0,0,1-50.72168-37.01685C41.27344,151.82263,24.00586,121.38306,24.00586,92a56.013,56.013,0,0,1,104-28.87823A56.013,56.013,0,0,1,232.00586,92c0,29.38306-17.26758,59.82263-51.32422,90.47314A312.79378,312.79378,0,0,1,129.96,219.49,3.993,3.993,0,0,1,128.00586,220Zm-48-176a48.054,48.054,0,0,0-48,48c0,59.701,82.17578,111.14148,96,119.36853,13.82422-8.227,96-59.66754,96-119.36853a48.00892,48.00892,0,0,0-92.30957-18.49268,3.99954,3.99954,0,0,1-7.38086,0A47.90343,47.90343,0,0,0,80.00586,44Z"/>
    </g>
    <g id="perfect">
        <path d="M197.00781,132.74023l-52.16015-19.21777a3.99186,3.99186,0,0,1-2.3711-2.37012L123.25977,58.99219a11.99948,11.99948,0,0,0-22.51954,0L81.52246,111.15234a3.99186,3.99186,0,0,1-2.37012,2.3711L26.99219,132.74023a11.99948,11.99948,0,0,0,0,22.51954l52.16015,19.21777a3.99186,3.99186,0,0,1,2.3711,2.37012l19.21679,52.16015a11.99948,11.99948,0,0,0,22.51954,0l19.21679-52.16015h.001a3.99186,3.99186,0,0,1,2.37012-2.3711l52.16015-19.21679a11.99948,11.99948,0,0,0,0-22.51954Zm-2.76562,15.01368L142.082,166.96973a11.98076,11.98076,0,0,0-7.11133,7.1123l-19.21679,52.16016a4.00076,4.00076,0,0,1-7.50782,0L89.03027,174.082a11.98076,11.98076,0,0,0-7.1123-7.11133L29.75781,147.75391a4.00076,4.00076,0,0,1,0-7.50782L81.918,121.03027a11.98076,11.98076,0,0,0,7.11133-7.1123l19.21679-52.16016a4.00076,4.00076,0,0,1,7.50782,0L134.96973,113.918a11.98076,11.98076,0,0,0,7.1123,7.11133l52.16016,19.21679a4.00076,4.00076,0,0,1,0,7.50782ZM148,40a4.0002,4.0002,0,0,1,4-4h20V16a4,4,0,0,1,8,0V36h20a4,4,0,0,1,0,8H180V64a4,4,0,0,1-8,0V44H152A4.0002,4.0002,0,0,1,148,40Zm96,48a4.0002,4.0002,0,0,1-4,4H228v12a4,4,0,0,1-8,0V92H208a4,4,0,0,1,0-8h12V72a4,4,0,0,1,8,0V84h12A4.0002,4.0002,0,0,1,244,88Z"/>
    </g>
    <g id="student">
        <path d="M225.26514,60.20508l-96-32a4.00487,4.00487,0,0,0-2.53028,0l-96,32c-.05713.019-.10815.04809-.16406.06958-.08545.033-.16821.06811-.251.10644a4.04126,4.04126,0,0,0-.415.22535c-.06714.04174-.13575.08007-.20044.12548a3.99,3.99,0,0,0-.47632.39307c-.02027.01953-.0437.0354-.06348.05542a3.97787,3.97787,0,0,0-.44556.53979c-.04077.0586-.07373.12183-.11132.18262a3.99741,3.99741,0,0,0-.23487.43262c-.03613.07837-.06811.15771-.09912.23852a3.96217,3.96217,0,0,0-.144.46412c-.01929.07714-.04126.15234-.05591.2312A3.98077,3.98077,0,0,0,28,64v80a4,4,0,0,0,8,0V69.55005l43.87524,14.625A59.981,59.981,0,0,0,104.272,175.09814a91.80574,91.80574,0,0,0-53.39062,38.71631,3.99985,3.99985,0,1,0,6.70117,4.36914,84.02266,84.02266,0,0,1,140.83447,0,3.99985,3.99985,0,1,0,6.70117-4.36914A91.80619,91.80619,0,0,0,151.728,175.09814a59.981,59.981,0,0,0,24.39673-90.92309l49.14038-16.38013a4.00037,4.00037,0,0,0,0-7.58984ZM180,120A52,52,0,1,1,87.92993,86.85986l38.80493,12.93506a4.00487,4.00487,0,0,0,2.53028,0l38.80493-12.93506A51.85133,51.85133,0,0,1,180,120ZM168.00659,78.44775l-.01294.0044L128,91.7832,44.64893,64,128,36.2168,211.35107,64Z"/>
    </g>

    <!--tools-->
    <g id="typescript">
        <path d="M0 12v12h24V0H0zm19.341-.956c.61.152 1.074.423 1.501.865.221.236.549.666.575.77.008.03-1.036.73-1.668 1.123-.023.015-.115-.084-.217-.236-.31-.45-.633-.644-1.128-.678-.728-.05-1.196.331-1.192.967a.88.88 0 0 0 .102.45c.16.331.458.53 1.39.933 1.719.74 2.454 1.227 2.911 1.92.51.773.625 2.008.278 2.926-.38.998-1.325 1.676-2.655 1.9-.411.073-1.386.062-1.828-.018-.964-.172-1.878-.648-2.442-1.273-.221-.243-.652-.88-.625-.925.011-.016.11-.077.22-.141.108-.061.511-.294.892-.515l.69-.4.145.214c.202.308.643.731.91.872.766.404 1.817.347 2.335-.118a.883.883 0 0 0 .313-.72c0-.278-.035-.4-.18-.61-.186-.266-.567-.49-1.649-.96-1.238-.533-1.771-.864-2.259-1.39a3.165 3.165 0 0 1-.659-1.2c-.091-.339-.114-1.189-.042-1.531.255-1.197 1.158-2.03 2.461-2.278.423-.08 1.406-.05 1.821.053zm-5.634 1.002l.008.983H10.59v8.876H8.38v-8.876H5.258v-.964c0-.534.011-.98.026-.99.012-.016 1.913-.024 4.217-.02l4.195.012z"/>
    </g>
    <g id="javascript">
        <path fill-rule="evenodd" clip-rule="evenodd"
              d="M0 0H24V24H0V0ZM18.3467 20.1196C17.2343 20.1196 16.6053 19.5394 16.1219 18.7501L14.2891 19.8149C14.9512 21.123 16.3044 22.1211 18.3989 22.1211C20.5409 22.1211 22.136 21.0088 22.136 18.9783C22.136 17.0949 21.0541 16.2571 19.1379 15.4354L18.5741 15.1939C17.6065 14.7749 17.1874 14.501 17.1874 13.8244C17.1874 13.277 17.6061 12.8579 18.2667 12.8579C18.9143 12.8579 19.3314 13.131 19.7181 13.8244L21.4743 12.6968C20.7314 11.3901 19.7006 10.891 18.2667 10.891C16.2526 10.891 14.9638 12.1787 14.9638 13.8701C14.9638 15.7063 16.0449 16.5749 17.6724 17.2682L18.2362 17.5101C19.2648 17.96 19.8781 18.2339 19.8781 19.0072C19.8781 19.6526 19.2811 20.1196 18.3467 20.1196ZM9.60647 20.1055C8.83161 20.1055 8.50933 19.5741 8.15504 18.9455L6.31923 20.057C6.85104 21.1825 7.89676 22.117 9.70247 22.117C11.7009 22.117 13.0701 21.0541 13.0701 18.7189V11.0198H10.8149V18.6884C10.8149 19.8156 10.3474 20.1055 9.60647 20.1055Z"
              fill="#000000"/>
    </g>
    <g id="react">
        <path d="m15.902 11.974c0 1.331-1.079 2.41-2.41 2.41s-2.41-1.079-2.41-2.41 1.079-2.41 2.41-2.41 2.41 1.079 2.41 2.41z"/>
        <path d="m13.491 17.494c-.201.005-.438.008-.676.008-2.811 0-5.522-.425-8.073-1.214l.193.051c-1.351-.436-2.522-1.079-3.541-1.903l.021.016c-.789-.571-1.32-1.455-1.41-2.467l-.001-.013c0-1.594 1.747-3.154 4.681-4.172 2.512-.827 5.403-1.304 8.405-1.304.139 0 .278.001.417.003h-.021c.116-.002.252-.003.389-.003 2.965 0 5.82.469 8.496 1.337l-.195-.055c1.305.424 2.438 1.036 3.433 1.814l-.024-.018c.775.546 1.298 1.404 1.386 2.387l.001.013c0 1.656-1.954 3.332-5.103 4.374-2.363.729-5.08 1.149-7.895 1.149-.17 0-.339-.002-.508-.005h.025zm0-9.84c-.106-.002-.232-.002-.358-.002-2.881 0-5.656.452-8.259 1.289l.191-.053c-2.698.941-3.908 2.228-3.908 3.087 0 .893 1.301 2.3 4.153 3.274 2.249.697 4.834 1.099 7.513 1.099.235 0 .469-.003.702-.009l-.034.001c.146.003.318.005.49.005 2.684 0 5.274-.4 7.715-1.143l-.187.049c2.96-.984 4.32-2.391 4.32-3.28-.102-.638-.462-1.176-.966-1.515l-.008-.005c-.866-.674-1.876-1.217-2.97-1.574l-.07-.02c-2.368-.766-5.093-1.208-7.92-1.208-.142 0-.283.001-.424.003h.021z"/>
        <path d="m8.023 23.986c-.016 0-.035.001-.053.001-.453 0-.878-.119-1.245-.327l.013.007c-1.378-.8-1.858-3.092-1.28-6.141.697-3.128 1.827-5.894 3.344-8.4l-.069.124c1.499-2.655 3.31-4.926 5.425-6.872l.02-.018c.923-.844 2.003-1.537 3.187-2.028l.073-.027c.407-.196.885-.31 1.39-.31.501 0 .976.113 1.4.314l-.02-.008c1.435.826 1.911 3.36 1.238 6.606-.72 2.967-1.818 5.58-3.262 7.959l.07-.123c-1.452 2.63-3.209 4.882-5.266 6.819l-.014.013c-.958.877-2.083 1.59-3.321 2.082l-.074.026c-.46.181-.992.292-1.549.305h-.006zm1.205-14.447.499.288c-1.381 2.28-2.465 4.926-3.106 7.74l-.034.18c-.533 2.809-.019 4.498.72 4.926.191.102.417.161.657.161.02 0 .041 0 .061-.001h-.003c.955 0 2.458-.605 4.196-2.122 1.976-1.867 3.654-4.023 4.972-6.404l.068-.135c1.318-2.156 2.371-4.653 3.025-7.307l.038-.182c.629-3.058.086-4.93-.686-5.378-.238-.094-.514-.148-.802-.148-.364 0-.708.087-1.012.24l.013-.006c-1.118.465-2.078 1.086-2.907 1.846l.007-.006c-2.041 1.881-3.772 4.057-5.136 6.468l-.069.132z"/>
        <path d="m18.96 24c-1.306 0-2.96-.787-4.69-2.276-2.175-1.983-4.017-4.282-5.464-6.834l-.072-.137c-1.43-2.349-2.551-5.075-3.215-7.975l-.036-.185c-.162-.709-.255-1.522-.255-2.357 0-.527.037-1.044.108-1.551l-.007.058c.085-.998.608-1.858 1.372-2.399l.01-.007c1.43-.83 3.865.024 6.342 2.228 2.022 1.914 3.748 4.113 5.118 6.54l.072.138c1.428 2.297 2.557 4.961 3.242 7.798l.038.186c.163.709.257 1.524.257 2.36 0 .577-.044 1.143-.13 1.696l.008-.062c-.103 1.022-.644 1.901-1.429 2.456l-.011.007c-.348.199-.764.316-1.207.316-.018 0-.036 0-.054-.001h.003zm-9.228-9.823c1.458 2.571 3.217 4.771 5.271 6.656l.02.018c2.166 1.863 3.884 2.266 4.628 1.834.773-.446 1.339-2.276.754-5.233-.702-2.89-1.787-5.434-3.219-7.741l.065.112c-1.379-2.456-3.027-4.562-4.948-6.384l-.012-.011c-2.334-2.074-4.225-2.54-4.998-2.094-.473.385-.784.952-.825 1.593v.007c-.055.39-.086.84-.086 1.298 0 .757.086 1.493.248 2.201l-.013-.066c.673 2.952 1.747 5.559 3.182 7.924l-.066-.117z"/>
    </g>
    <g id="html">
        <g id="Page-1" stroke="none" stroke-width="1" fill="none" fill-rule="evenodd">
            <g id="Dribbble-Light-Preview" transform="translate(-61.000000, -7639.000000)" fill="#000000">
                <g id="icons" transform="translate(56.000000, 160.000000)">
                    <path d="M19.4350881,7485 L19.4279481,7485 L10.8119794,7485 L11.0180201,7487 L19.2300674,7487 C19.109707,7488.752 18.7455658,7492.464 18.6119454,7494.153 L13.99949,7495.451 L13.99949,7495.455 L13.98929,7495.46 L9.37377458,7493.836 L9.05757353,7490 L11.3199411,7490 L11.4800816,7492.063 L13.99337,7493 L13.99949,7493 L16.5086984,7492.1 L16.7667592,7489 L8.95659319,7489 C8.91885306,7488.599 8.43333144,7483.392 8.34867116,7483 L19.6370488,7483 C19.5738086,7483.66 19.5095484,7484.338 19.4350881,7485 L19.4350881,7485 Z M5,7479 L6.63812546,7497.148 L13.98929,7499 L21.3598345,7497.111 L23,7479 L5,7479 Z"
                          id="html-[#124]">

                    </path>
                </g>
            </g>
        </g>
    </g>
    <g id="css">
        <path d="M24.235 6.519l-16.47-0.004 0.266 3.277 12.653 0.002-0.319 3.394h-8.298l0.3 3.215h7.725l-0.457 4.403-3.636 1.005-3.694-1.012-0.235-2.637h-3.262l0.362 4.817 6.829 2.128 6.714-1.912 1.521-16.675zM2.879 1.004h26.242l-2.387 26.946-10.763 3.045-10.703-3.047z"></path>
    </g>
    <g id="redux">
        <path d="M16.6295 16.563C17.5152 16.4705 18.1871 15.6997 18.1565 14.7748C18.126 13.8499 17.3624 13.1099 16.4462 13.1099H16.3851C15.4384 13.1408 14.7054 13.9424 14.7359 14.8981C14.7665 15.3606 14.9497 15.7614 15.2246 16.0389C14.1862 18.1046 12.5981 19.6153 10.2159 20.8794C8.59718 21.7426 6.91742 22.0509 5.23767 21.8351C3.86332 21.6501 2.79439 21.0335 2.12249 20.0161C1.14517 18.5054 1.05355 16.8713 1.87816 15.2373C2.45844 14.0657 3.37467 13.2024 3.95495 12.7708C3.83278 12.37 3.64954 11.6917 3.55791 11.1984C-0.870533 14.4357 -0.412419 18.8137 0.931386 20.8794C1.93924 22.4209 3.98549 23.3767 6.24552 23.3767C6.85634 23.3767 7.46716 23.315 8.07798 23.1609C11.9872 22.3901 14.9497 20.0469 16.6295 16.563ZM22.0047 12.7399C19.6836 9.99598 16.263 8.48525 12.3537 8.48525H11.8651C11.5902 7.93029 11.0099 7.56032 10.3686 7.56032H10.3075C9.3607 7.59115 8.62772 8.39276 8.65826 9.34853C8.6888 10.2735 9.45233 11.0134 10.3686 11.0134H10.4296C11.1015 10.9826 11.6818 10.5509 11.9261 9.96515H12.4759C14.797 9.96515 16.996 10.6434 18.9811 11.9692C20.5082 12.9866 21.6076 14.3123 22.2185 15.9155C22.7377 17.2105 22.7071 18.4745 22.1574 19.5536C21.3022 21.1877 19.8668 22.0818 17.9733 22.0818C16.7516 22.0818 15.5911 21.7118 14.9803 21.4343C14.6443 21.7426 14.0335 22.2359 13.6059 22.5442C14.9192 23.1609 16.263 23.5 17.5457 23.5C20.4776 23.5 22.646 21.866 23.4706 20.2319C24.3563 18.4437 24.2953 15.3606 22.0047 12.7399ZM6.48985 17.0871C6.52039 18.0121 7.28392 18.752 8.20015 18.752H8.26123C9.208 18.7212 9.94098 17.9196 9.91044 16.9638C9.8799 16.0389 9.11638 15.2989 8.20015 15.2989H8.13906C8.07798 15.2989 7.98636 15.2989 7.92528 15.3298C6.6731 13.2332 6.1539 10.9517 6.33714 8.48525C6.45931 6.63539 7.07013 5.03217 8.13906 3.70643C9.02475 2.56568 10.735 2.01072 11.8956 1.97989C15.133 1.91823 16.5073 5.98794 16.5989 7.62198C16.996 7.71448 17.6679 7.93029 18.126 8.08445C17.7595 3.08981 14.7054 0.5 11.7734 0.5C9.02475 0.5 6.48985 2.50402 5.482 5.46381C4.07711 9.41019 4.99334 13.2024 6.70364 16.193C6.55093 16.4088 6.45931 16.748 6.48985 17.0871Z"
              fill="#000000"/>
    </g>

    <!--social-->
    <g id="telegram">
        <path d="M228.646,34.7676a11.96514,11.96514,0,0,0-12.21778-2.0752L31.87109,105.19729a11.99915,11.99915,0,0,0,2.03467,22.93457L84,138.15139v61.833a11.8137,11.8137,0,0,0,7.40771,11.08593,12.17148,12.17148,0,0,0,4.66846.94434,11.83219,11.83219,0,0,0,8.40918-3.5459l28.59619-28.59619L175.2749,217.003a11.89844,11.89844,0,0,0,7.88819,3.00195,12.112,12.112,0,0,0,3.72265-.59082,11.89762,11.89762,0,0,0,8.01319-8.73925L232.5127,46.542A11.97177,11.97177,0,0,0,228.646,34.7676ZM32.2749,116.71877a3.86572,3.86572,0,0,1,2.522-4.07617L203.97217,46.18044,87.07227,130.60769,35.47461,120.28811A3.86618,3.86618,0,0,1,32.2749,116.71877Zm66.55322,86.09375A3.99976,3.99976,0,0,1,92,199.9844V143.72048l35.064,30.85669ZM224.71484,44.7549,187.10107,208.88772a4.0003,4.0003,0,0,1-6.5415,2.10937l-86.1543-75.8164,129.66309-93.645A3.80732,3.80732,0,0,1,224.71484,44.7549Z"/>
    </g>
    <g id="whatsapp">
        <path d="M128.00049,28A100.02594,100.02594,0,0,0,41.11475,177.53908l-9.0044,31.51661a11.99971,11.99971,0,0,0,14.835,14.834l31.5166-9.00391A100.00677,100.00677,0,1,0,128.00049,28Zm0,192a91.87082,91.87082,0,0,1-46.95264-12.86719,3.99494,3.99494,0,0,0-3.14355-.4082l-33.15723,9.47363a3.99979,3.99979,0,0,1-4.94434-4.94531l9.47266-33.15625a4.00111,4.00111,0,0,0-.4082-3.14355A92.01077,92.01077,0,1,1,128.00049,220Zm50.51123-73.457-20.45947-11.69141a12.01054,12.01054,0,0,0-12.12745.12891l-13.80664,8.28418a44.04183,44.04183,0,0,1-19.38232-19.38281l8.28369-13.80664a12.0108,12.0108,0,0,0,.12891-12.127l-11.69092-20.46A10.91584,10.91584,0,0,0,100,72a32.00811,32.00811,0,0,0-32,31.88086A84.001,84.001,0,0,0,151.999,188h.12012A32.00842,32.00842,0,0,0,184,156,10.913,10.913,0,0,0,178.51172,146.543ZM152.10791,180h-.1084A75.99972,75.99972,0,0,1,76,103.8926,23.997,23.997,0,0,1,100,80a2.89975,2.89975,0,0,1,2.51172,1.457L114.20264,101.918a4.00418,4.00418,0,0,1-.043,4.042l-9.38916,15.64844a3.9987,3.9987,0,0,0-.21826,3.69824,52.04112,52.04112,0,0,0,26.1416,26.1416,3.99707,3.99707,0,0,0,3.69873-.21875L150.04,141.84084a4.006,4.006,0,0,1,4.043-.04394l20.46045,11.69238A2.89712,2.89712,0,0,1,176,156,23.99725,23.99725,0,0,1,152.10791,180Z"/>
    </g>
    <g id="mail">
        <path d="M227.97314,55.73364a4.02612,4.02612,0,0,0-.04345-.4331c-.02246-.12647-.0586-.24659-.09229-.3689a3.869,3.869,0,0,0-.11719-.37744,3.93668,3.93668,0,0,0-.17285-.36572c-.05615-.11011-.10986-.22022-.17675-.32618a3.97344,3.97344,0,0,0-.26709-.35717c-.05469-.06812-.09571-.14283-.15528-.208-.019-.02075-.042-.03467-.06152-.05493a3.99806,3.99806,0,0,0-.33789-.30127c-.0874-.07276-.16992-.15186-.26221-.21631a3.98254,3.98254,0,0,0-.35449-.20654c-.10693-.05957-.21045-.126-.32178-.17481-.11816-.052-.24365-.08569-.3667-.12622-.124-.04053-.24511-.08716-.37158-.11548-.11523-.02539-.23535-.03369-.35352-.04931a3.98727,3.98727,0,0,0-.43359-.04371C224.05615,52.00781,224.0293,52,224,52H32c-.02832,0-.0542.00781-.082.0083a4.02834,4.02834,0,0,0-.45606.0459c-.11035.01514-.22216.02246-.32959.04614a4.03493,4.03493,0,0,0-.4038.12525c-.11231.03808-.22706.06811-.33448.11523-.12011.05273-.23242.124-.34814.189-.11133.063-.22559.11987-.33008.19287-.0957.06665-.18164.14843-.27246.22461a4.10864,4.10864,0,0,0-.33008.29467c-.019.02027-.04248.03443-.06152.05518-.05957.06518-.10059.13989-.15528.208a3.97344,3.97344,0,0,0-.26709.35717c-.06738.106-.1206.21631-.17724.32666a3.92106,3.92106,0,0,0-.17236.365,3.86234,3.86234,0,0,0-.11719.37818c-.03418.12182-.06983.24219-.09229.36841a4.02612,4.02612,0,0,0-.04345.4331C28.021,55.82324,28,55.90869,28,56V192a12.01343,12.01343,0,0,0,12,12H216a12.01343,12.01343,0,0,0,12-12V56C228,55.90869,227.979,55.82324,227.97314,55.73364ZM220,190.90625,151.374,128,220,65.093ZM36,65.093l68.626,62.90722L36,190.90723Zm92,73.48071L42.2832,60H213.7168Zm-17.4541-5.147,14.751,13.52173a4.00021,4.00021,0,0,0,5.40624,0l14.751-13.522L213.7168,196H42.28418Z"/>
    </g>
    <g id="mail2">
        <path d="M127.999,27.99512a100,100,0,1,0,55.2959,183.333,4.00018,4.00018,0,1,0-4.42969-6.6621,92.00763,92.00763,0,1,1,41.13379-76.6709c0,31.32324-15.03711,36-24,36s-24-4.67676-24-36v-40a4,4,0,0,0-8,0v14.74841a43.986,43.986,0,1,0,2.81739,45.94226c4.645,14.88452,14.84521,23.30933,29.18261,23.30933,20.03711,0,32-16.44825,32-44A100.11269,100.11269,0,0,0,127.999,27.99512Zm0,136a36,36,0,1,1,36-36A36.04063,36.04063,0,0,1,127.999,163.99512Z"/>
    </g>
    <g id="linkedin">
        <path d="M96,80a8,8,0,1,1-8-8A7.99993,7.99993,0,0,1,96,80Zm-8,28.001a4,4,0,0,0-4,4v64a4,4,0,1,0,8,0v-64A4,4,0,0,0,88,108.001Zm60,0a31.92463,31.92463,0,0,0-24,10.86767V112.001a4,4,0,0,0-8,0v64a4,4,0,1,0,8,0v-36a24,24,0,0,1,48,0v36a4,4,0,1,0,8,0v-36A32.03619,32.03619,0,0,0,148,108.001ZM224,44V212a12.01375,12.01375,0,0,1-12,12H44a12.01375,12.01375,0,0,1-12-12V44A12.01359,12.01359,0,0,1,44,32H212A12.01359,12.01359,0,0,1,224,44Zm-8,0a4.00458,4.00458,0,0,0-4-4H44a4.00458,4.00458,0,0,0-4,4V212a4.00458,4.00458,0,0,0,4,4H212a4.00458,4.00458,0,0,0,4-4Z"/>
    </g>
    <g id="github">
        <path d="M216,220a20.02229,20.02229,0,0,1-20-20v-8a28.04258,28.04258,0,0,0-18.9043-26.4751A52.036,52.036,0,0,0,204,120v-8a53.77853,53.77853,0,0,0-8.05859-27.83984A55.766,55.766,0,0,0,191.46387,38,3.99989,3.99989,0,0,0,188,36a55.78079,55.78079,0,0,0-45.96289,24l-28.07422-.001A55.785,55.785,0,0,0,68,36a3.99989,3.99989,0,0,0-3.46387,2,55.766,55.766,0,0,0-4.47754,46.16016A53.77853,53.77853,0,0,0,52,112v8a52.036,52.036,0,0,0,26.9043,45.5249A28.04258,28.04258,0,0,0,60,192v8a20.02229,20.02229,0,0,1-20,20,4,4,0,0,0,0,8,28.03146,28.03146,0,0,0,28-28v-8a20.02229,20.02229,0,0,1,20-20h16v44a20.02229,20.02229,0,0,1-20,20,4,4,0,0,0,0,8,28.03146,28.03146,0,0,0,28-28V172h32v44a28.03146,28.03146,0,0,0,28,28,4,4,0,0,0,0-8,20.02229,20.02229,0,0,1-20-20V172h16a20.02229,20.02229,0,0,1,20,20v8a28.03146,28.03146,0,0,0,28,28,4,4,0,0,0,0-8ZM60,120v-8a45.7282,45.7282,0,0,1,7.70605-24.88965,3.99975,3.99975,0,0,0,.53858-3.84375A47.81139,47.81139,0,0,1,70.3418,44.05569a47.83327,47.83327,0,0,1,38.11474,22.10058A3.9989,3.9989,0,0,0,111.8252,67.999L144.1748,68h0a3.99875,3.99875,0,0,0,3.36866-1.84375A47.83182,47.83182,0,0,1,185.6582,44.05569a47.81139,47.81139,0,0,1,2.09717,39.21093,4.01978,4.01978,0,0,0,.53174,3.835A45.722,45.722,0,0,1,196,112v8a44.04978,44.04978,0,0,1-44,44H104A44.04978,44.04978,0,0,1,60,120Z"/>
    </g>
    <g id="codewars">
        <style type="text/css">
            .st0{fill:none;stroke:#000000;stroke-width:4;stroke-linecap:round;stroke-linejoin:round;stroke-miterlimit:10;}
        </style>
        <g>
            <path class="st0"
                  d="M132.404,226.306c58.114-3.551,101.538-54.579,96.106-108.885C223.207,64.4,173.755,25.96,121.386,29.518   c-53.091,3.606-96.815,49.633-94.368,103.041c4.318,83.454,84.984,95.212,88.478,94.081"/>
            <path class="st0" d="M128.833,124.943c15-28.667,44.333-22.667,56.5-6.833s5.417,46.161-9.333,47.833"/>
            <path class="st0"
                  d="M128.833,124.943c-16.344-27.922,5.503-50.27,25.379-52.185c24.462-2.356,43.287,20.435,37.658,32.591"/>
            <path class="st0"
                  d="M128.833,124.943c-31.316-0.927-41.01-27.526-32.757-48.776C105,53.193,138.5,51.943,147.302,63.85"/>
            <path class="st0"
                  d="M128.833,124.943c-17.967,26.907-49.903,21.476-60.315,4.437S63.75,84.193,83.902,81.6"/>
            <path class="st0"
                  d="M128.833,124.943c13.278,29.504-10.266,53.482-30.234,53.483c-18.849,0.001-39.349-14.233-33.087-35.314"/>
            <path class="st0"
                  d="M128.833,124.943c32.054,4.395,43.132,34.492,32.36,51.305s-39.694,23.861-49.487,10.315"/>
        </g>
    </g>

    <!--decor-->
    <g id="decor1.1">
        <g clip-path="url(#clip0_15_6)">
            <circle cx="151.149" cy="149.775" r="97.5" fill="#D2FF85"/>
            <circle cx="236.149" cy="199.775" r="28.5" fill="#FFD885"/>
            <path d="M21.7099 207.137C4.01736 176.468 -0.769804 140.023 8.40155 105.819C17.5729 71.6144 39.9515 42.4531 70.6144 24.7499C101.277 7.0467 137.713 2.25177 171.905 11.4199C206.097 20.5881 235.246 42.9684 252.939 73.6374L191.663 109.015C183.348 94.6002 169.648 84.0814 153.577 79.7723C137.507 75.4633 120.382 77.7169 105.97 86.0374C91.5588 94.358 81.0408 108.064 76.7303 124.14C72.4197 140.216 74.6697 157.346 82.9852 171.76L21.7099 207.137Z"
                  fill="#B285FF"/>
        </g>
        <defs>
            <clipPath id="clip0_15_6">
                <rect width="269" height="251" fill="white"/>
            </clipPath>
        </defs>
    </g>
    <g id="decor1.2">
        <g clip-path="url(#clip0_15_32)">
            <circle cx="151.149" cy="149.775" r="97.5" fill="#FFD885"/>
            <circle cx="236.149" cy="199.775" r="28.5" fill="#B285FF"/>
            <path d="M21.7099 207.137C4.01736 176.468 -0.769804 140.023 8.40155 105.819C17.5729 71.6144 39.9515 42.4531 70.6144 24.7499C101.277 7.0467 137.713 2.25177 171.905 11.4199C206.097 20.5881 235.246 42.9684 252.939 73.6374L191.663 109.015C183.348 94.6002 169.648 84.0814 153.577 79.7723C137.507 75.4633 120.382 77.7169 105.97 86.0374C91.5588 94.358 81.0408 108.064 76.7303 124.14C72.4197 140.216 74.6697 157.346 82.9852 171.76L21.7099 207.137Z"
                  fill="#D2FF85"/>
        </g>
        <defs>
            <clipPath id="clip0_15_32">
                <rect width="269" height="251" fill="white"/>
            </clipPath>
        </defs>
    </g>
    <g id="decor2.1">
        <g clip-path="url(#clip0_15_11)">
            <path d="M30.0636 9.62247C18.7139 23.4707 10.8661 39.8485 7.18401 57.3708C3.50187 74.8931 4.0937 93.0444 8.90941 110.29C13.7251 127.535 22.6231 143.367 34.8508 156.446C47.0785 169.526 62.2762 179.468 79.1585 185.432C96.0409 191.397 114.111 193.208 131.842 190.712C149.572 188.217 166.44 181.488 181.02 171.095C195.6 160.702 207.463 146.951 215.605 131.004C223.747 115.058 227.93 97.3849 227.798 79.4804L214.195 79.5805C214.311 95.3007 210.639 110.818 203.49 124.819C196.342 138.82 185.926 150.893 173.125 160.018C160.323 169.143 145.513 175.051 129.946 177.242C114.378 179.433 98.5126 177.843 83.6898 172.607C68.867 167.37 55.5234 158.64 44.7875 147.157C34.0515 135.673 26.2391 121.772 22.0109 106.631C17.7826 91.4897 17.263 75.5528 20.496 60.1682C23.7289 44.7836 30.6192 30.4038 40.5843 18.245L30.0636 9.62247Z"
                  fill="#FFD885"/>
            <path d="M55.6575 29.0504C47.5651 38.9242 41.9696 50.6017 39.3442 63.0952C36.7188 75.5886 37.1408 88.5306 40.5744 100.827C44.0081 113.122 50.3524 124.411 59.0707 133.736C67.7891 143.062 78.6252 150.151 90.6624 154.404C102.7 158.656 115.584 159.948 128.226 158.168C140.867 156.389 152.895 151.591 163.29 144.181C173.686 136.771 182.144 126.966 187.949 115.596C193.755 104.226 196.737 91.6254 196.643 78.8594L181.451 78.9712C181.527 89.2977 179.115 99.4906 174.419 108.688C169.723 117.885 162.881 125.816 154.472 131.81C146.063 137.805 136.334 141.685 126.108 143.125C115.882 144.564 105.46 143.52 95.723 140.08C85.986 136.64 77.2206 130.905 70.1683 123.362C63.1159 115.818 57.9839 106.687 55.2064 96.7406C52.4289 86.7943 52.0876 76.3254 54.2113 66.2193C56.335 56.1133 60.8612 46.6673 67.4072 38.6803L55.6575 29.0504Z"
                  fill="#FFD885"/>
            <path d="M79.8765 41.256C74.5324 47.7765 70.8373 55.488 69.1035 63.7384C67.3698 71.9888 67.6485 80.5354 69.9159 88.6554C72.1834 96.7753 76.3731 104.23 82.1305 110.388C87.8879 116.547 95.0438 121.228 102.993 124.037C110.942 126.845 119.451 127.698 127.799 126.523C136.147 125.347 144.09 122.179 150.955 117.286C157.82 112.392 163.405 105.917 167.239 98.409C171.073 90.9005 173.042 82.5792 172.98 74.1488L160.941 74.2374C160.989 80.7345 159.471 87.1476 156.517 92.9343C153.562 98.7209 149.257 103.711 143.967 107.482C138.676 111.254 132.555 113.695 126.121 114.601C119.687 115.507 113.13 114.849 107.003 112.685C100.877 110.521 95.3621 106.913 90.925 102.167C86.4878 97.4203 83.259 91.6753 81.5114 85.4173C79.7639 79.1594 79.5492 72.5727 80.8853 66.2143C82.2215 59.8558 85.0693 53.9127 89.1878 48.8875L79.8765 41.256Z"
                  fill="#FFD885"/>
        </g>
        <defs>
            <clipPath id="clip0_15_11">
                <rect width="235" height="198" fill="white"/>
            </clipPath>
        </defs>
    </g>
    <g id="decor2.2">
        <svg width="253" height="205" viewBox="0 0 253 205" fill="none" xmlns="http://www.w3.org/2000/svg">
            <path d="M41.0636 9.62247C29.7139 23.4707 21.8661 39.8485 18.184 57.3708C14.5019 74.8931 15.0937 93.0444 19.9094 110.29C24.7251 127.535 33.6231 143.367 45.8508 156.446C58.0785 169.526 73.2762 179.468 90.1585 185.432C107.041 191.397 125.111 193.208 142.842 190.712C160.572 188.217 177.44 181.488 192.02 171.095C206.6 160.702 218.463 146.951 226.605 131.004C234.747 115.058 238.93 97.3849 238.798 79.4804L225.195 79.5805C225.311 95.3007 221.639 110.818 214.49 124.819C207.342 138.82 196.926 150.893 184.125 160.018C171.323 169.143 156.513 175.051 140.946 177.242C125.378 179.433 109.513 177.843 94.6898 172.607C79.867 167.37 66.5234 158.64 55.7875 147.157C45.0515 135.673 37.2391 121.772 33.0109 106.631C28.7826 91.4897 28.263 75.5528 31.496 60.1682C34.7289 44.7836 41.6192 30.4038 51.5843 18.245L41.0636 9.62247Z"
                  fill="#B285FF"/>
            <path d="M66.6575 29.0504C58.5651 38.9242 52.9696 50.6017 50.3442 63.0952C47.7188 75.5886 48.1408 88.5306 51.5744 100.827C55.0081 113.122 61.3524 124.411 70.0707 133.736C78.7891 143.062 89.6252 150.151 101.662 154.404C113.7 158.656 126.584 159.948 139.226 158.168C151.867 156.389 163.895 151.591 174.29 144.181C184.686 136.771 193.144 126.966 198.949 115.596C204.755 104.226 207.737 91.6254 207.643 78.8594L192.451 78.9712C192.527 89.2977 190.115 99.4906 185.419 108.688C180.723 117.885 173.881 125.816 165.472 131.81C157.063 137.805 147.334 141.685 137.108 143.125C126.882 144.564 116.46 143.52 106.723 140.08C96.986 136.64 88.2206 130.905 81.1683 123.362C74.1159 115.818 68.9839 106.687 66.2064 96.7406C63.4289 86.7943 63.0876 76.3254 65.2113 66.2193C67.335 56.1133 71.8612 46.6673 78.4072 38.6803L66.6575 29.0504Z"
                  fill="#D2FF85"/>
            <path d="M90.8765 41.256C85.5324 47.7765 81.8373 55.488 80.1035 63.7384C78.3698 71.9888 78.6485 80.5354 80.9159 88.6554C83.1834 96.7753 87.3731 104.23 93.1305 110.388C98.8879 116.547 106.044 121.228 113.993 124.037C121.942 126.845 130.451 127.698 138.799 126.523C147.147 125.347 155.09 122.179 161.955 117.286C168.82 112.392 174.405 105.917 178.239 98.409C182.073 90.9005 184.042 82.5792 183.98 74.1488L171.941 74.2374C171.989 80.7345 170.471 87.1476 167.517 92.9343C164.562 98.7209 160.257 103.711 154.967 107.482C149.676 111.254 143.555 113.695 137.121 114.601C130.687 115.507 124.13 114.849 118.003 112.685C111.877 110.521 106.362 106.913 101.925 102.167C97.4878 97.4203 94.259 91.6753 92.5114 85.4173C90.7639 79.1594 90.5492 72.5727 91.8853 66.2143C93.2215 59.8558 96.0693 53.9127 100.188 48.8875L90.8765 41.256Z"
                  fill="#FFD885"/>
        </svg>

    </g>
    <g id="decor3.1">
        <path d="M231.979 0.614389C249.682 31.2772 254.479 67.7168 245.315 101.917C236.152 136.117 213.777 165.276 183.114 182.979C152.452 200.682 116.012 205.479 81.8121 196.315C47.6121 187.152 18.4532 164.777 0.750008 134.114L62.0253 98.7371C70.3459 113.149 84.0506 123.665 100.125 127.972C116.199 132.279 133.325 130.024 147.737 121.703C162.149 113.383 172.665 99.6782 176.972 83.6041C181.279 67.53 179.024 50.4033 170.703 35.9917L231.979 0.614389Z"
              fill="#B285FF"/>
    </g>
    <g id="decor3.2">
        <path d="M0.621301 28.648C28.6338 6.99359 64.1012 -2.64593 99.221 1.84998C134.341 6.34588 166.236 24.6089 187.891 52.6215C209.545 80.634 219.184 116.101 214.689 151.221C210.193 186.341 191.93 218.236 163.917 239.891L120.644 183.912C133.81 173.734 142.394 158.743 144.507 142.237C146.62 125.73 142.089 109.061 131.912 95.8946C121.734 82.7286 106.743 74.1449 90.2366 72.0319C73.7302 69.9188 57.0604 74.4494 43.8944 84.627L0.621301 28.648Z"
              fill="#FFD885"/>

    </g>
    <g id="decor3.3">
        <path d="M214.397 213.54C186.135 234.868 150.558 244.095 115.493 239.193C80.4275 234.29 48.746 215.658 27.4178 187.397C6.08971 159.135 -3.13797 123.558 1.76481 88.4928C6.66759 53.4275 25.2992 21.7459 53.5609 0.417816L96.1821 56.8948C82.899 66.9191 74.1421 81.8095 71.8378 98.2903C69.5335 114.771 73.8705 131.492 83.8948 144.775C93.9191 158.058 108.809 166.815 125.29 169.12C141.771 171.424 158.492 167.087 171.775 157.063L214.397 213.54Z"
              fill="#D2FF85"/>

    </g>
    <g id="decor4.1">
        <g clip-path="url(#clip0_10_63)">
            <circle cx="50.1377" cy="48.3447" r="40.5" fill="#B285FF"/>
            <path d="M13.911 15.6788C8.97414 21.7025 5.56053 28.8264 3.95889 36.4483C2.35724 44.0701 2.61467 51.9655 4.7094 59.4668C6.80413 66.968 10.6746 73.8545 15.9933 79.5438C21.3121 85.2331 27.9227 89.5578 35.2662 92.1522C42.6097 94.7466 50.4699 95.5343 58.1821 94.4488C65.8944 93.3633 73.2318 90.4364 79.5738 85.9158C85.9158 81.3951 91.0758 75.4136 94.6175 68.4772C98.1591 61.5408 99.9782 53.8535 99.9209 46.0654L94.0042 46.109C94.0545 52.9469 92.4574 59.6964 89.3478 65.7866C86.2382 71.8768 81.7077 77.1285 76.1394 81.0977C70.5711 85.0668 64.1288 87.6366 57.3575 88.5897C50.5861 89.5428 43.6848 88.8511 37.2372 86.5733C30.7896 84.2954 24.9854 80.4983 20.3155 75.5031C15.6457 70.5079 12.2474 64.4615 10.4082 57.8754C8.56906 51.2892 8.34303 44.357 9.74928 37.665C11.1555 30.9731 14.1527 24.7182 18.4873 19.4294L13.911 15.6788Z"
                  fill="#D2FF85"/>
            <path d="M71.3825 17.701C66.8631 14.4966 61.6385 12.4278 56.1505 11.6695C50.6625 10.9111 45.0727 11.4856 39.8536 13.3442C34.6346 15.2029 29.94 18.2911 26.1667 22.3476C22.3935 26.4041 19.6527 31.3097 18.1761 36.6494C16.6994 41.9891 16.5305 47.6059 17.6835 53.0247C18.8364 58.4435 21.2775 63.505 24.8 67.781C28.3226 72.057 32.8232 75.4218 37.921 77.5907C43.0189 79.7597 48.5641 80.6692 54.0878 80.242L53.5795 73.669C49.1114 74.0145 44.6258 73.2789 40.5021 71.5243C36.3784 69.7698 32.7379 67.048 29.8884 63.5891C27.039 60.1302 25.0644 56.036 24.1318 51.6527C23.1991 47.2694 23.3358 42.7259 24.5302 38.4066C25.7247 34.0872 27.9418 30.1191 30.994 26.8377C34.0462 23.5564 37.8437 21.0583 42.0654 19.5548C46.2871 18.0513 50.8088 17.5866 55.2481 18.2001C59.6873 18.8135 63.9136 20.487 67.5694 23.079L71.3825 17.701Z"
                  fill="#D2FF85"/>
            <path d="M70.9923 56.6783C73.0821 53.7308 74.4313 50.3235 74.9259 46.7444C75.4205 43.1653 75.0458 39.5197 73.8337 36.116C72.6215 32.7123 70.6075 29.6505 67.9619 27.1897C65.3163 24.7289 62.117 22.9414 58.6346 21.9784C55.1522 21.0154 51.4891 20.9052 47.9551 21.6572C44.4211 22.4091 41.1202 24.0011 38.3315 26.2984C35.5428 28.5958 33.3483 31.5309 31.9338 34.8556C30.5192 38.1803 29.9261 41.7968 30.2047 45.3991L35.3489 45.0014C35.1343 42.2251 35.5913 39.4379 36.6815 36.8756C37.7717 34.3133 39.4629 32.0513 41.6121 30.2808C43.7613 28.5102 46.3053 27.2833 49.0289 26.7038C51.7525 26.1243 54.5756 26.2092 57.2594 26.9514C59.9433 27.6936 62.4089 29.0712 64.4478 30.9677C66.4867 32.8642 68.0389 35.2238 68.9731 37.847C69.9073 40.4702 70.196 43.2798 69.8149 46.0381C69.4337 48.7965 68.3939 51.4225 66.7833 53.694L70.9923 56.6783Z"
                  fill="#D2FF85"/>
        </g>
        <defs>
            <clipPath id="clip0_10_63">
                <rect width="102" height="102" fill="white"/>
            </clipPath>
        </defs>
    </g>
    <g id="decor4.2">
        <g clip-path="url(#clip0_15_37)">
            <circle cx="69.505" cy="70.411" r="40.5" transform="rotate(-40.2715 69.505 70.411)" fill="#FFD885"/>
            <path d="M20.749 68.9045C20.876 76.6917 22.8764 84.3339 26.5812 91.1845C30.286 98.0352 35.586 103.893 42.0332 108.262C48.4804 112.632 55.885 115.384 63.6207 116.287C71.3565 117.19 79.1959 116.216 86.4759 113.449C93.756 110.681 100.262 106.201 105.445 100.388C110.628 94.5744 114.334 87.5983 116.251 80.0496C118.168 72.5008 118.238 64.6015 116.457 57.0197C114.675 49.438 111.094 42.3967 106.016 36.4915L101.53 40.3494C105.988 45.5341 109.132 51.7164 110.697 58.3732C112.261 65.03 112.199 71.9656 110.516 78.5934C108.833 85.2212 105.579 91.3463 101.029 96.4506C96.4781 101.555 90.7654 105.488 84.3735 107.918C77.9816 110.348 71.0986 111.203 64.3066 110.41C57.5146 109.617 51.0133 107.201 45.3527 103.364C39.692 99.528 35.0385 94.3849 31.7858 88.37C28.533 82.355 26.7765 75.6452 26.6651 68.808L20.749 68.9045Z"
                  fill="#B285FF"/>
            <path d="M83.7869 36.5591C78.7912 34.1642 73.2921 33.0078 67.7549 33.1874C62.2177 33.367 56.8052 34.8775 51.9752 37.5911C47.1452 40.3047 43.0397 44.1416 40.0059 48.7772C36.9722 53.4129 35.0995 58.7109 34.5461 64.2233C33.9928 69.7357 34.7751 75.3003 36.8269 80.4465C38.8787 85.5926 42.1396 90.169 46.3339 93.7885C50.5282 97.408 55.5325 99.9641 60.9235 101.241C66.3145 102.517 71.9337 102.477 77.3058 101.123L75.6945 94.7302C71.3489 95.8255 66.8035 95.8582 62.4427 94.8255C58.0819 93.7928 54.0339 91.7251 50.6411 88.7973C47.2483 85.8695 44.6105 82.1676 42.9507 78.0049C41.291 73.8421 40.6582 69.3409 41.1058 64.8818C41.5534 60.4228 43.0683 56.1371 45.5223 52.3873C47.9763 48.6375 51.2973 45.5338 55.2044 43.3388C59.1114 41.1437 63.4896 39.9219 67.9687 39.7766C72.4478 39.6313 76.896 40.5668 80.9371 42.504L83.7869 36.5591Z"
                  fill="#B285FF"/>
            <path d="M45.9026 64.395C45.7695 68.0056 46.5079 71.5953 48.0554 74.8602C49.6028 78.1252 51.9138 80.9695 54.7929 83.1525C57.6719 85.3355 61.0344 86.7931 64.5958 87.4019C68.1573 88.0108 71.813 87.753 75.2537 86.6504C78.6945 85.5478 81.8191 83.6327 84.3633 81.0673C86.9075 78.5018 88.7965 75.3613 89.8704 71.9115C90.9444 68.4617 91.1717 64.804 90.5332 61.2477C89.8948 57.6915 88.4092 54.3413 86.2023 51.4805L82.1171 54.632C83.8179 56.8368 84.9628 59.4187 85.4548 62.1595C85.9469 64.9002 85.7717 67.7192 84.944 70.3779C84.1163 73.0366 82.6605 75.4569 80.6997 77.4341C78.739 79.4112 76.3309 80.8871 73.6791 81.7369C71.0274 82.5867 68.21 82.7853 65.4653 82.3161C62.7205 81.8469 60.1291 80.7236 57.9103 79.0411C55.6915 77.3587 53.9104 75.1667 52.7178 72.6504C51.5252 70.1342 50.9561 67.3677 51.0587 64.585L45.9026 64.395Z"
                  fill="#B285FF"/>
        </g>
        <defs>
            <clipPath id="clip0_15_37">
                <rect width="102" height="102" fill="white" transform="translate(0 65.9338) rotate(-40.2715)"/>
            </clipPath>
        </defs>
    </g>
    <g id="decor4.3">
        <g clip-path="url(#clip0_15_17)">
            <circle cx="63.0393" cy="48.1138" r="44" fill="#B285FF"/>
            <path d="M16.8779 9.38991C10.6687 16.9661 6.37525 25.9261 4.36081 35.5123C2.34636 45.0985 2.67014 55.0288 5.30475 64.4634C7.93936 73.898 12.8073 82.5594 19.4969 89.715C26.1865 96.8706 34.5009 102.31 43.737 105.573C52.9731 108.836 62.8592 109.827 72.5591 108.461C82.2591 107.096 91.4876 103.415 99.4641 97.7292C107.441 92.0434 113.931 84.5203 118.385 75.7962C122.839 67.072 125.127 57.4034 125.055 47.6082L117.614 47.6629C117.677 56.2632 115.668 64.7522 111.757 72.4121C107.846 80.0719 102.148 86.6772 95.1445 91.6693C88.1411 96.6614 80.0385 99.8935 71.5219 101.092C63.0053 102.291 54.3253 101.421 46.216 98.5562C38.1067 95.6912 30.8066 90.9154 24.9331 84.6328C19.0596 78.3502 14.7856 70.7455 12.4724 62.4619C10.1592 54.1783 9.87488 45.4594 11.6436 37.0427C13.4123 28.626 17.1819 20.7591 22.6336 14.1072L16.8779 9.38991Z"
                  fill="#FFD885"/>
            <path d="M79.5797 6.40333C73.0298 3.9756 65.9915 3.16095 59.0602 4.02829C52.1289 4.89562 45.5085 7.41943 39.7587 11.3863C34.009 15.3531 29.2991 20.6463 26.0275 26.8181C22.7558 32.9899 21.0186 39.8589 20.9628 46.844C20.907 53.8291 22.5342 60.725 25.7067 66.9483C28.8793 73.1717 33.504 78.5394 39.1896 82.5977C44.8752 86.6559 51.4545 89.2852 58.371 90.2632C65.2876 91.2412 72.3379 90.5392 78.9258 88.2164L76.1618 80.3769C70.8328 82.2558 65.1297 82.8237 59.5348 82.0326C53.94 81.2415 48.6179 79.1146 44.0188 75.8319C39.4197 72.5491 35.6788 68.2071 33.1124 63.173C30.5461 58.1389 29.2299 52.5608 29.275 46.9104C29.3202 41.2601 30.7254 35.7038 33.3719 30.7113C36.0184 25.7189 39.8282 21.4372 44.4792 18.2284C49.1302 15.0196 54.4856 12.9781 60.0924 12.2765C65.6991 11.5749 71.3924 12.2338 76.6907 14.1977L79.5797 6.40333Z"
                  fill="#FFD885"/>
            <path d="M94.5683 47.67C94.994 43.1133 94.3161 38.521 92.5918 34.2816C90.8676 30.0422 88.1478 26.2804 84.6624 23.3144C81.177 20.3483 77.0285 18.2653 72.5679 17.2414C68.1073 16.2175 63.4657 16.2829 59.0358 17.432C54.6058 18.5812 50.5177 20.7803 47.1172 23.8433C43.7168 26.9064 41.104 30.7433 39.4999 35.0296C37.8957 39.3159 37.3474 43.9254 37.9014 48.4684C38.4553 53.0114 40.0951 57.3541 42.6822 61.1294L48.0733 57.435C46.0795 54.5255 44.8157 51.1786 44.3888 47.6774C43.9619 44.1762 44.3845 40.6237 45.6208 37.3203C46.8571 34.017 48.8707 31.0599 51.4913 28.6993C54.112 26.3386 57.2626 24.6438 60.6768 23.7582C64.0909 22.8726 67.6681 22.8222 71.1058 23.6113C74.5435 24.4003 77.7406 26.0057 80.4268 28.2916C83.1129 30.5775 85.209 33.4767 86.5379 36.7439C87.8667 40.0111 88.3892 43.5503 88.0611 47.0621L94.5683 47.67Z"
                  fill="#FFD885"/>
        </g>
        <defs>
            <clipPath id="clip0_15_17">
                <rect width="128" height="112" fill="white"/>
            </clipPath>
        </defs>
    </g>
    <g id="decor4.4">
        <g clip-path="url(#clip0_15_43)">
            <circle cx="63.0393" cy="48.1138" r="44" fill="#D2FF85"/>
            <path d="M3.65785 56.5966C5.0292 66.2957 8.71617 75.5219 14.4069 83.4949C20.0977 91.4678 27.6248 97.9531 36.3517 102.402C45.0787 106.851 54.7487 109.133 64.5439 109.055C74.3392 108.977 83.9715 106.541 92.6263 101.953C101.281 97.3652 108.704 90.7607 114.267 82.6979C119.829 74.6351 123.369 65.3513 124.585 55.6315C125.801 45.9118 124.659 36.0421 121.255 26.8571C117.85 17.6721 112.284 9.44209 105.027 2.86304L100.029 8.37655C106.401 14.153 111.288 21.379 114.277 29.4434C117.266 37.5078 118.269 46.1735 117.201 54.7074C116.133 63.2414 113.025 71.3926 108.141 78.4718C103.257 85.5509 96.7399 91.3497 89.141 95.3778C81.542 99.4058 73.0848 101.545 64.4845 101.613C55.8843 101.682 47.394 99.6783 39.7317 95.7721C32.0695 91.8659 25.4606 86.1718 20.4641 79.1715C15.4676 72.1712 12.2304 64.0706 11.0264 55.5548L3.65785 56.5966Z"
                  fill="#B285FF"/>
            <path d="M55.7636 4.57019C48.9193 5.96692 42.5121 8.99138 37.0837 13.3878C31.6554 17.7842 27.3656 23.4232 24.5773 29.8279C21.789 36.2326 20.5841 43.2147 21.0645 50.1835C21.5449 57.1523 23.6965 63.9029 27.3374 69.8644C30.9782 75.8259 36.0012 80.8229 41.9815 84.4328C47.9618 88.0427 54.7235 90.1594 61.6947 90.6037C68.6659 91.048 75.6416 89.8069 82.0317 86.9854C88.4219 84.1639 94.0386 79.845 98.4069 74.394L91.9202 69.1959C88.3867 73.6053 83.8433 77.0988 78.6742 79.3812C73.5051 81.6635 67.8624 82.6674 62.2234 82.308C56.5843 81.9486 51.1147 80.2364 46.2772 77.3164C41.4397 74.3963 37.3766 70.3542 34.4315 65.5319C31.4864 60.7096 29.7459 55.2489 29.3573 49.6118C28.9687 43.9747 29.9434 38.3268 32.1989 33.146C34.4544 27.9652 37.9244 23.4037 42.3154 19.8475C46.7064 16.2912 51.8893 13.8447 57.4257 12.7148L55.7636 4.57019Z"
                  fill="#B285FF"/>
            <path d="M38.0905 49.7686C38.8533 54.2812 40.6915 58.5438 43.4498 62.1958C46.2081 65.8478 49.8053 68.7818 53.9373 70.7497C58.0692 72.7176 62.6142 73.6615 67.1881 73.5016C71.7619 73.3416 76.2299 72.0825 80.2143 69.8308C84.1986 67.5791 87.5821 64.4009 90.0785 60.5651C92.575 56.7294 94.111 52.3488 94.5566 47.7939C95.0022 43.2391 94.3443 38.6439 92.6386 34.397C90.9329 30.1501 88.2295 26.3765 84.7571 23.3953L80.4998 28.3539C83.176 30.6515 85.2594 33.5598 86.574 36.8328C87.8885 40.1058 88.3955 43.6472 88.0521 47.1576C87.7087 50.668 86.5249 54.044 84.601 57.0002C82.677 59.9563 80.0694 62.4057 76.9987 64.141C73.928 65.8764 70.4846 66.8468 66.9596 66.97C63.4347 67.0933 59.9319 66.3659 56.7475 64.8492C53.5631 63.3326 50.7907 61.0714 48.665 58.2569C46.5392 55.4423 45.1225 52.1572 44.5347 48.6795L38.0905 49.7686Z"
                  fill="#B285FF"/>
        </g>
        <defs>
            <clipPath id="clip0_15_43">
                <rect width="128" height="112" fill="white"/>
            </clipPath>
        </defs>
    </g>
    <g id="decor5.1">
        <g clip-path="url(#clip0_15_21)">
            <circle cx="64.5463" cy="63.7732" r="58" fill="#D2FF85"/>
            <path d="M10.3866 117.16C17.3974 124.171 25.7205 129.732 34.8805 133.526C44.0406 137.32 53.8583 139.273 63.7731 139.273C73.6879 139.273 83.5057 137.32 92.6657 133.526C101.826 129.732 110.149 124.171 117.16 117.16C124.171 110.149 129.732 101.826 133.526 92.6658C137.32 83.5057 139.273 73.688 139.273 63.7732C139.273 53.8584 137.32 44.0407 133.526 34.8806C129.732 25.7205 124.171 17.3974 117.16 10.3866L63.7731 63.7732L10.3866 117.16Z"
                  fill="#B285FF"/>
        </g>
        <defs>
            <clipPath id="clip0_15_21">
                <rect width="142" height="143" fill="white"/>
            </clipPath>
        </defs>
    </g>
    <g id="decor5.2">
        <g clip-path="url(#clip0_15_58)">
            <circle cx="64.5463" cy="63.7732" r="58" fill="#FFD885"/>
            <path d="M10.3866 117.16C17.3974 124.171 25.7205 129.732 34.8805 133.526C44.0406 137.32 53.8583 139.273 63.7731 139.273C73.6879 139.273 83.5057 137.32 92.6657 133.526C101.826 129.732 110.149 124.171 117.16 117.16C124.171 110.149 129.732 101.826 133.526 92.6658C137.32 83.5057 139.273 73.688 139.273 63.7732C139.273 53.8584 137.32 44.0407 133.526 34.8806C129.732 25.7205 124.171 17.3974 117.16 10.3866L63.7731 63.7732L10.3866 117.16Z"
                  fill="#B285FF"/>
        </g>
        <defs>
            <clipPath id="clip0_15_58">
                <rect width="142" height="143" fill="white"/>
            </clipPath>
        </defs>
    </g>
    <g id="decor6.1">
        <path d="M148.555 25.5183C140.476 17.4396 130.885 11.0313 120.33 6.6591C109.775 2.28694 98.4616 0.0366158 87.0366 0.0366104C75.6116 0.0366158 64.2985 2.28694 53.7431 6.6591C43.1878 11.0313 33.597 17.4396 25.5183 25.5183C17.4396 33.597 11.0312 43.1878 6.65906 53.7432C2.2869 64.2985 0.0365816 75.6116 0.0365829 87.0366C0.0365843 98.4616 2.28691 109.775 6.65907 120.33C11.0312 130.885 17.4396 140.476 25.5183 148.555L87.0366 87.0366L148.555 25.5183Z"
              fill="#B285FF"/>
    </g>
    <g id="decor6.2">
        <path d="M0.367949 132.988C9.08352 140.375 19.1687 145.973 30.0478 149.463C40.9269 152.952 52.3867 154.265 63.773 153.326C75.1594 152.386 86.2492 149.213 96.4093 143.988C106.569 138.763 115.601 131.588 122.988 122.872C130.375 114.157 135.973 104.071 139.463 93.1923C142.952 82.3132 144.265 70.8534 143.325 59.467C142.386 48.0807 139.213 36.9909 133.988 26.8308C128.763 16.6707 121.588 7.63924 112.872 0.252123L56.62 66.6201L0.367949 132.988Z"
              fill="#D2FF85"/>
    </g>
    <g id="decor6.3">
        <path d="M102.381 158.004C111.644 151.317 119.5 142.871 125.5 133.149C131.5 123.426 135.526 112.616 137.348 101.338C139.17 90.0588 138.753 78.5316 136.12 67.414C133.488 56.2965 128.691 45.8064 122.004 36.5426C115.317 27.2788 106.871 19.4228 97.1486 13.4231C87.4257 7.42338 76.6163 3.39749 65.3376 1.57527C54.0588 -0.246945 42.5316 0.170194 31.4141 2.80287C20.2965 5.43555 9.80639 10.2322 0.542611 16.919L51.4616 87.4616L102.381 158.004Z"
              fill="#FFD885"/>
    </g>
</svg>
