<svg width="102" height="102" viewBox="0 0 102 102" fill="none" xmlns="http://www.w3.org/2000/svg">
<circle cx="50.1377" cy="48.3447" r="40.5" fill="#B285FF"/>
<path d="M13.911 15.6788C8.97416 21.7025 5.56055 28.8265 3.9589 36.4483C2.35726 44.0701 2.61469 51.9655 4.70942 59.4668C6.80415 66.968 10.6746 73.8545 15.9933 79.5438C21.3121 85.2331 27.9228 89.5578 35.2662 92.1522C42.6097 94.7466 50.4699 95.5343 58.1822 94.4488C65.8944 93.3633 73.2318 90.4364 79.5738 85.9158C85.9158 81.3951 91.0758 75.4136 94.6175 68.4772C98.1591 61.5408 99.9782 53.8535 99.921 46.0654L94.0043 46.109C94.0546 52.9469 92.4574 59.6964 89.3478 65.7866C86.2382 71.8768 81.7077 77.1285 76.1394 81.0977C70.5711 85.0668 64.1288 87.6366 57.3575 88.5897C50.5861 89.5428 43.6848 88.8511 37.2372 86.5733C30.7896 84.2954 24.9855 80.4983 20.3156 75.5031C15.6457 70.5079 12.2474 64.4615 10.4083 57.8754C8.56907 51.2892 8.34305 44.357 9.7493 37.665C11.1555 30.9731 14.1527 24.7182 18.4873 19.4294L13.911 15.6788Z" fill="#D2FF85"/>
<path d="M71.3825 17.701C66.8631 14.4966 61.6385 12.4278 56.1505 11.6695C50.6626 10.9111 45.0727 11.4856 39.8536 13.3442C34.6346 15.2029 29.94 18.2911 26.1667 22.3476C22.3935 26.4041 19.6527 31.3097 18.1761 36.6494C16.6995 41.9891 16.5305 47.6059 17.6835 53.0247C18.8365 58.4435 21.2775 63.505 24.8001 67.781C28.3226 72.057 32.8232 75.4218 37.9211 77.5907C43.0189 79.7597 48.5642 80.6691 54.0878 80.242L53.5795 73.669C49.1114 74.0145 44.6258 73.2789 40.5021 71.5243C36.3784 69.7698 32.7379 67.048 29.8885 63.5891C27.039 60.1302 25.0645 56.036 24.1318 51.6527C23.1991 47.2694 23.3358 42.7259 24.5303 38.4066C25.7247 34.0872 27.9418 30.1191 30.994 26.8377C34.0462 23.5564 37.8437 21.0583 42.0654 19.5548C46.2871 18.0513 50.8088 17.5866 55.2481 18.2001C59.6874 18.8135 63.9136 20.487 67.5694 23.079L71.3825 17.701Z" fill="#D2FF85"/>
<path d="M70.9923 56.6783C73.0821 53.7308 74.4314 50.3235 74.9259 46.7444C75.4205 43.1653 75.0459 39.5197 73.8337 36.116C72.6215 32.7123 70.6075 29.6505 67.9619 27.1897C65.3163 24.7289 62.1171 22.9414 58.6346 21.9784C55.1522 21.0154 51.4891 20.9052 47.9551 21.6572C44.4211 22.4091 41.1202 24.0011 38.3315 26.2984C35.5428 28.5958 33.3483 31.5309 31.9338 34.8556C30.5192 38.1803 29.9261 41.7968 30.2047 45.3991L35.3489 45.0013C35.1343 42.2251 35.5914 39.4379 36.6815 36.8756C37.7717 34.3133 39.4629 32.0513 41.6121 30.2808C43.7613 28.5102 46.3053 27.2833 49.0289 26.7038C51.7525 26.1243 54.5756 26.2092 57.2595 26.9514C59.9433 27.6936 62.4089 29.0712 64.4478 30.9677C66.4867 32.8642 68.0389 35.2238 68.9731 37.847C69.9073 40.4702 70.196 43.2798 69.8149 46.0381C69.4337 48.7965 68.3939 51.4225 66.7833 53.694L70.9923 56.6783Z" fill="#D2FF85"/>
</svg>
